<?xml version="1.0" encoding="UTF-8" standalone="no"?>
<!-- Generator: Adobe Illustrator 27.5.0, SVG Export Plug-In . SVG Version: 6.00 Build 0)  -->

<svg
   version="1.1"
   id="Layer_1"
   x="0px"
   y="0px"
   viewBox="0 0 4000 2000"
   style="enable-background:new 0 0 4000 2000;"
   xml:space="preserve"
   sodipodi:docname="footer-background2.svg"
   inkscape:version="1.4.3 (0d15f75, 2025-12-25)"
   xmlns:inkscape="http://www.inkscape.org/namespaces/inkscape"
   xmlns:sodipodi="http://sodipodi.sourceforge.net/DTD/sodipodi-0.dtd"
   xmlns="http://www.w3.org/2000/svg"
   xmlns:svg="http://www.w3.org/2000/svg"><defs
   id="defs24" /><sodipodi:namedview
   id="namedview24"
   pagecolor="#ffffff"
   bordercolor="#111111"
   borderopacity="1"
   inkscape:showpageshadow="0"
   inkscape:pageopacity="0"
   inkscape:pagecheckerboard="1"
   inkscape:deskcolor="#d1d1d1"
   inkscape:zoom="0.2062984"
   inkscape:cx="1354.8336"
   inkscape:cy="1451.7805"
   inkscape:window-width="2560"
   inkscape:window-height="1369"
   inkscape:window-x="-8"
   inkscape:window-y="-8"
   inkscape:window-maximized="1"
   inkscape:current-layer="_1715058179072" />
<g
   id="Layer_x5F_1">
	<g
   id="_1715058179072">
		
		<g
   id="g24"
   transform="translate(9.6946949,9.6946945)">
			
				<linearGradient
   id="SVGID_1_"
   gradientUnits="userSpaceOnUse"
   x1="3550.2729"
   y1="-1225.8038"
   x2="602.32141"
   y2="2066.8682"
   gradientTransform="matrix(1,0,0,-1,0,2002)">
				<stop
   offset="0"
   style="stop-color:#9EC6F3"
   id="stop1" />
				<stop
   offset="1"
   style="stop-color:#FEFEFE"
   id="stop2" />
			</linearGradient>
			<path
   style="clip-rule:evenodd;fill:url(#SVGID_1_);fill-rule:evenodd"
   d="m 0,129.68 c 151.41,17.08 310.1,57.61 473.35,129.96 547.58,242.68 714.41,39.77 880.27,-161.97 C 1380.9,64.5 1408.15,31.35 1436.9,0 H 0 Z"
   id="path2" />
			
				<linearGradient
   id="SVGID_00000175286209028666926020000010800982878518151810_"
   gradientUnits="userSpaceOnUse"
   x1="3758.8486"
   y1="-1039.0575"
   x2="810.89917"
   y2="2253.6123"
   gradientTransform="matrix(1,0,0,-1,0,2002)">
				<stop
   offset="0"
   style="stop-color:#9EC6F3"
   id="stop3" />
				<stop
   offset="1"
   style="stop-color:#FEFEFE"
   id="stop4" />
			</linearGradient>
			<path
   style="clip-rule:evenodd;fill:url(#SVGID_00000175286209028666926020000010800982878518151810_);fill-rule:evenodd"
   d="M 1385.51,123.89 C 1209.68,337.75 1032.82,552.85 456.68,297.51 299.28,227.75 146.19,188.33 0,171.37 v 175.06 c 204.07,-0.91 424.8,37.91 654.54,139.72 547.58,242.68 714.41,39.77 880.27,-161.96 137.9,-167.73 275.17,-334.68 607.66,-272.34 122.1,22.89 195.87,0.54 240.03,-51.85 h -888.11 c -38.61,38.42 -73.73,81.13 -108.88,123.89 z"
   id="path4" />
			
				<linearGradient
   id="SVGID_00000160900750107369195020000000600339871928171152_"
   gradientUnits="userSpaceOnUse"
   x1="3767.4673"
   y1="-1031.3519"
   x2="819.51538"
   y2="2261.3203"
   gradientTransform="matrix(1,0,0,-1,0,2002)">
				<stop
   offset="0"
   style="stop-color:#9EC6F3"
   id="stop5" />
				<stop
   offset="1"
   style="stop-color:#FEFEFE"
   id="stop6" />
			</linearGradient>
			<path
   style="clip-rule:evenodd;fill:url(#SVGID_00000160900750107369195020000000600339871928171152_);fill-rule:evenodd"
   d="M 1566.69,350.41 C 1390.87,564.26 1214.01,779.36 637.87,524.02 414.04,424.83 198.93,386.98 0,387.82 v 196.3 c 251.95,-29.85 536.19,-4.2 835.72,128.55 547.59,242.68 714.42,39.77 880.28,-161.97 137.9,-167.72 275.17,-334.68 607.66,-272.34 194.79,36.53 266.58,-42.1 291.33,-174.13 C 2621,72.19 2624.48,37.19 2626.34,0 h -191.17 c -48.02,83.17 -137.14,123.07 -300.31,92.47 -308.53,-57.85 -438.05,99.68 -568.17,257.94 z"
   id="path6" />
			
				<linearGradient
   id="SVGID_00000069390426733943235240000015588236074715566270_"
   gradientUnits="userSpaceOnUse"
   x1="3753.4548"
   y1="-1043.8827"
   x2="805.50677"
   y2="2248.7854"
   gradientTransform="matrix(1,0,0,-1,0,2002)">
				<stop
   offset="0"
   style="stop-color:#9EC6F3"
   id="stop7" />
				<stop
   offset="1"
   style="stop-color:#FEFEFE"
   id="stop8" />
			</linearGradient>
			<path
   style="clip-rule:evenodd;fill:url(#SVGID_00000069390426733943235240000015588236074715566270_);fill-rule:evenodd"
   d="M 1747.88,576.92 C 1572.06,790.78 1395.2,1005.88 819.05,750.54 525.42,620.41 246.78,595.84 0,625.74 v 216.54 c 293.13,-67.64 643.11,-68.76 1016.91,96.9 547.59,242.68 714.42,39.77 880.28,-161.96 137.9,-167.73 275.17,-334.69 607.66,-272.34 194.79,36.52 266.58,-42.11 291.33,-174.14 17.23,-91.87 13.65,-207.99 10.83,-330.74 h -139.43 c -1.87,39.81 -5.5,77.38 -11.96,111.84 -29.31,156.3 -113.12,249.6 -339.57,207.15 -308.53,-57.85 -438.05,99.68 -568.17,257.93 z"
   id="path8" />
			
				<linearGradient
   id="SVGID_00000078008641903924549420000015453355785798972328_"
   gradientUnits="userSpaceOnUse"
   x1="3734.6785"
   y1="-1060.6935"
   x2="786.73108"
   y2="2231.9741"
   gradientTransform="matrix(1,0,0,-1,0,2002)">
				<stop
   offset="0"
   style="stop-color:#9EC6F3"
   id="stop9" />
				<stop
   offset="1"
   style="stop-color:#FEFEFE"
   id="stop10" />
			</linearGradient>
			<path
   style="clip-rule:evenodd;fill:url(#SVGID_00000078008641903924549420000015453355785798972328_);fill-rule:evenodd"
   d="M 1929.07,803.43 C 1753.25,1017.29 1576.39,1232.39 1000.24,977.05 632.2,813.95 287.72,816.69 0,884.64 v 236.13 c 324.64,-111.39 743.78,-156.42 1198.1,44.93 547.59,242.67 714.42,39.76 880.28,-161.97 137.9,-167.72 275.17,-334.68 607.66,-272.34 194.79,36.52 266.58,-42.1 291.33,-174.13 27.67,-147.55 1.68,-357.59 11.32,-557.26 H 2848.2 c 2.71,124.28 6.45,243.2 -11.39,338.35 -29.31,156.3 -113.12,249.61 -339.57,207.15 -308.53,-57.85 -438.05,99.68 -568.17,257.93 z"
   id="path10" />
			
				<linearGradient
   id="SVGID_00000112607276408321249090000012646686803161298089_"
   gradientUnits="userSpaceOnUse"
   x1="3719.926"
   y1="-1073.9159"
   x2="771.9826"
   y2="2218.7471"
   gradientTransform="matrix(1,0,0,-1,0,2002)">
				<stop
   offset="0"
   style="stop-color:#9EC6F3"
   id="stop11" />
				<stop
   offset="1"
   style="stop-color:#FEFEFE"
   id="stop12" />
			</linearGradient>
			<path
   style="clip-rule:evenodd;fill:url(#SVGID_00000112607276408321249090000012646686803161298089_);fill-rule:evenodd"
   d="M 2110.26,1029.95 C 1934.44,1243.8 1757.58,1458.9 1181.43,1203.57 732.48,1004.6 318.57,1052.43 0,1164.36 v 255.46 c 341.3,-156.45 835.05,-268.81 1379.29,-27.61 547.59,242.68 714.42,39.77 880.28,-161.97 137.9,-167.72 275.17,-334.68 607.66,-272.34 194.79,36.53 266.58,-42.1 291.33,-174.13 C 3197.11,578.15 3131.48,251.16 3203.25,0 h -172.68 c -10.81,198.82 16.02,412.36 -12.57,564.86 -29.31,156.31 -113.12,249.61 -339.57,207.15 -308.53,-57.85 -438.06,99.69 -568.17,257.94 z"
   id="path12" />
			
				<linearGradient
   id="SVGID_00000034077148992370761180000018229515922286436006_"
   gradientUnits="userSpaceOnUse"
   x1="3728.0833"
   y1="-1066.6067"
   x2="780.13519"
   y2="2226.0615"
   gradientTransform="matrix(1,0,0,-1,0,2002)">
				<stop
   offset="0"
   style="stop-color:#9EC6F3"
   id="stop13" />
				<stop
   offset="1"
   style="stop-color:#FEFEFE"
   id="stop14" />
			</linearGradient>
			<path
   style="clip-rule:evenodd;fill:url(#SVGID_00000034077148992370761180000018229515922286436006_);fill-rule:evenodd"
   d="m 2291.45,1256.46 c -175.82,213.86 -352.68,428.96 -928.83,173.62 C 822.81,1190.85 333.68,1308.41 0,1465.19 v 275.21 c 332.23,-193.4 910.33,-409.81 1560.48,-121.68 547.58,242.68 714.41,39.77 880.28,-161.96 137.9,-167.73 275.17,-334.68 607.66,-272.34 194.78,36.52 266.58,-42.11 291.33,-174.13 C 3391.73,733.04 3254.3,235.16 3519.67,0 h -270.98 c -78.05,244.88 -9.48,577.92 -49.5,791.38 -29.31,156.3 -113.12,249.61 -339.57,207.15 -308.54,-57.85 -438.06,99.68 -568.17,257.93 z"
   id="path14" />
			
				<linearGradient
   id="SVGID_00000033336913622410268530000013370015133236024223_"
   gradientUnits="userSpaceOnUse"
   x1="3796.8862"
   y1="-1005.0066"
   x2="848.93347"
   y2="2287.667"
   gradientTransform="matrix(1,0,0,-1,0,2002)">
				<stop
   offset="0"
   style="stop-color:#9EC6F3"
   id="stop15" />
				<stop
   offset="1"
   style="stop-color:#FEFEFE"
   id="stop16" />
			</linearGradient>
			<path
   style="clip-rule:evenodd;fill:url(#SVGID_00000033336913622410268530000013370015133236024223_);fill-rule:evenodd"
   d="M 2472.64,1482.98 C 2296.81,1696.83 2119.96,1911.93 1543.81,1656.6 895.72,1369.37 320.67,1596.44 0,1788.22 V 2000 h 67.39 c 308.27,-201.92 938.1,-498.7 1655.83,-180.61 547.58,242.68 714.41,39.77 880.27,-161.97 137.9,-167.72 275.17,-334.68 607.66,-272.34 194.79,36.53 266.58,-42.1 291.34,-174.13 C 3568.6,858.36 3328.36,148.91 4000,76.92 V 0 h -408.22 c -306.24,206.17 -156.45,724.78 -211.41,1017.89 -29.3,156.31 -113.12,249.61 -339.56,207.15 -308.54,-57.85 -438.06,99.68 -568.17,257.94 z"
   id="path16" />
			
				<linearGradient
   id="SVGID_00000083079405381148312720000004305363670979739570_"
   gradientUnits="userSpaceOnUse"
   x1="3807.5071"
   y1="-995.49658"
   x2="859.55261"
   y2="2297.179"
   gradientTransform="matrix(1,0,0,-1,0,2002)">
				<stop
   offset="0"
   style="stop-color:#9EC6F3"
   id="stop17" />
				<stop
   offset="1"
   style="stop-color:#FEFEFE"
   id="stop18" />
			</linearGradient>
			<path
   style="clip-rule:evenodd;fill:url(#SVGID_00000083079405381148312720000004305363670979739570_);fill-rule:evenodd"
   d="M 2635.38,1683.64 C 2459.55,1897.5 2282.7,2112.6 1706.55,1857.26 1045.87,1564.46 461.15,1806.11 144.4,2000 h 475.38 c 322.28,-124.37 750.62,-191.27 1219.06,0 h 799.69 c 46.34,-43 87.06,-92.48 127.7,-141.91 137.9,-167.73 275.17,-334.68 607.66,-272.34 194.79,36.52 266.58,-42.11 291.33,-174.14 C 3725.27,1091.36 3532.62,476.73 4000,312.72 V 118.54 c -620.36,70.5 -390.88,747.95 -456.89,1100.02 -29.31,156.3 -113.12,249.6 -339.57,207.15 -308.53,-57.85 -438.05,99.68 -568.16,257.93 z"
   id="path18" />
			
				<linearGradient
   id="SVGID_00000040556366662101152560000014783996460727235235_"
   gradientUnits="userSpaceOnUse"
   x1="2873.4475"
   y1="-1831.7709"
   x2="-74.500397"
   y2="1460.897"
   gradientTransform="matrix(1,0,0,-1,0,2002)">
				<stop
   offset="0"
   style="stop-color:#9EC6F3"
   id="stop19" />
				<stop
   offset="1"
   style="stop-color:#FEFEFE"
   id="stop20" />
			</linearGradient>
			<path
   style="clip-rule:evenodd;fill:url(#SVGID_00000040556366662101152560000014783996460727235235_);fill-rule:evenodd"
   d="m 1719.09,2000 c -365.22,-120.86 -701.61,-86.14 -974.86,0 z"
   id="path20" />
			
				<linearGradient
   id="SVGID_00000015321359356512461710000001182684805500676759_"
   gradientUnits="userSpaceOnUse"
   x1="4456.7158"
   y1="-414.2511"
   x2="1508.7661"
   y2="2878.4189"
   gradientTransform="matrix(1,0,0,-1,0,2002)">
				<stop
   offset="0"
   style="stop-color:#9EC6F3"
   id="stop21" />
				<stop
   offset="1"
   style="stop-color:#FEFEFE"
   id="stop22" />
			</linearGradient>
			<path
   style="clip-rule:evenodd;fill:url(#SVGID_00000015321359356512461710000001182684805500676759_);fill-rule:evenodd"
   d="m 2798.11,1884.31 c -32.49,39.51 -65.02,79.06 -100.09,115.69 h 279.88 c 123.94,-145.06 265.32,-268.6 558.72,-213.59 194.79,36.52 266.58,-42.1 291.34,-174.13 51.46,-274.45 -82.69,-765.12 172.04,-1003.1 V 358.03 c -414.38,164.84 -234.79,744.58 -294.15,1061.19 -29.31,156.3 -113.12,249.61 -339.57,207.15 -308.54,-57.85 -438.06,99.68 -568.17,257.94 z"
   id="path22" />
			
				<linearGradient
   id="SVGID_00000033362277755883884140000001715558374830346398_"
   gradientUnits="userSpaceOnUse"
   x1="4471.1489"
   y1="-401.33441"
   x2="1523.1979"
   y2="2891.3369"
   gradientTransform="matrix(1,0,0,-1,0,2002)">
				<stop
   offset="0"
   style="stop-color:#9EC6F3"
   id="stop23" />
				<stop
   offset="1"
   style="stop-color:#FEFEFE"
   id="stop24" />
			</linearGradient>
			<path
   style="clip-rule:evenodd;fill:url(#SVGID_00000033362277755883884140000001715558374830346398_);fill-rule:evenodd"
   d="M 3529.01,1827.03 C 3276.59,1779.7 3143.99,1876.55 3032.86,2000 H 4000 V 673.95 c -197.94,237.3 -82.05,682.61 -131.42,945.94 -29.31,156.3 -113.12,249.6 -339.57,207.14 z"
   id="path24" />
		</g>
	</g>
</g>
</svg>
