<?xml version="1.0" encoding="utf-8" ?><svg xmlns="http://www.w3.org/2000/svg" xmlns:xlink="http://www.w3.org/1999/xlink" width="1011" height="1011" viewBox="0 0 1011 1011"><path fill="#00A8EC" transform="matrix(1.42595 0 0 1.42595 -6.10352e-05 -6.10352e-05)" d="M18.082 259.494L17.5917 258.949C19.7397 247.862 26.72 230.583 31.0074 220.157C77.5445 106.991 184.724 23.7816 306.131 7.60124C326.361 4.89418 345.326 3.36837 365.815 4.32937C372.563 4.64586 379.372 4.72331 386.112 5.27855C491.821 15.3911 587.972 72.2143 647.07 160.64C676.13 204.12 695.876 256.231 702.665 308.418C703.348 313.542 704.567 320.482 704.935 325.415C707.475 359.452 705.689 389.447 699.127 422.882C681.091 514.768 627.32 594.583 549.672 646.69C505.03 676.647 454.484 695.454 401.308 702.653C395.722 703.409 389.436 704.494 383.93 705.078C379.188 705.582 372.601 705.386 367.588 705.59C353.678 706.106 339.723 705.651 325.824 704.966C321.911 704.773 317.251 703.831 313.311 703.361C275.276 698.815 237.916 688.085 203.39 671.471C199.688 669.69 192.858 666.827 190.015 664.22C187.955 662.831 184.911 661.321 182.672 660.096C166.401 651.193 150.973 641.123 136.454 629.54C134.42 628.211 132.138 626.073 130.251 624.507C42.5587 551.713 -4.42568 438.341 5.09494 324.886C5.74064 317.191 11.9786 273.723 15.3605 268.386C16.6561 265.714 17.8087 262.457 18.082 259.494Z"/><path fill="#FDFDFE" transform="matrix(1.42595 0 0 1.42595 -6.10352e-05 -6.10352e-05)" d="M136.225 209.821C129.847 208.532 117.78 207.827 113.351 203.296C112.32 199.879 121.674 197.832 123.602 198.071C129.604 198.813 135.641 204.335 140.876 206.923C139.875 204.804 137.167 201.356 136.727 199.779C138.691 197.345 149.707 200.992 151.881 203.317C155.594 207.287 158.517 211.669 161.169 216.394C161.202 214.978 161.129 208.986 161.703 208.057C163.032 207.704 165.149 208.784 166.134 209.463C169.213 211.583 178.384 217.222 179.838 220.248C182.998 226.827 185.026 237.895 186.659 244.92L186.765 244.45C187.738 239.964 187.003 232.941 188.661 230.259C189.264 229.979 189.4 229.744 189.922 229.989C192.375 231.139 199.055 240.468 199.773 242.651C202.339 250.457 201.517 262.502 201.74 270.691C202.475 267.491 204.046 254.802 205.707 253.425C208.741 253.672 211.049 261.398 211.109 263.918C211.291 271.491 210.182 279.392 208.951 286.841L208.738 288.105L208.972 287.685C210.905 284.14 212.779 275.871 214.671 274.399C216.159 274.357 215.55 274.135 216.641 274.81C216.771 278.591 218.303 282.935 219.179 286.716C221.07 294.872 221.076 302.5 220.441 310.818C222.185 307.946 226.555 300.708 229.81 299.826C231.774 300.257 231.802 303.401 232.404 305.357C233.513 301.057 235.336 295.931 236.756 291.642C240.821 288.244 256.933 274.817 261.211 278.01C262.387 281.34 257.613 285.903 259.241 287.858C259.989 287.402 262.845 282.58 263.728 281.428C271.124 271.777 277.882 268.751 289.865 267.412C293.617 266.992 296.396 266.401 300.339 266.517C299.453 269.366 297.973 272.694 297.337 275.291C300.866 273.059 307.865 268.427 311.288 266.967C315.855 265.021 340.037 267.946 342.802 271.184C342.545 274.624 330.35 274.714 328.966 277.354C333.618 277.852 358.958 271.017 359.64 278.433C358.114 280.818 350.164 281.212 346.245 283.193C353.551 283.146 362.617 283.467 369.733 283.135C372.468 284.93 380.582 290.495 381.348 293.736C381.041 294.664 381.172 294.422 380.651 295.246L379.339 295.497C379.454 295.799 379.627 296.307 379.763 296.581C387 298.482 389.437 300.789 391.721 308.064C385.073 308.133 381.469 308.211 375.754 304.18C372.164 301.649 368.38 298.984 364.747 296.5C366.863 299.618 368.343 301.543 369.805 305.034C354.337 305.251 356.827 302.092 345.06 295.291C345.941 297.096 347.411 299.63 347.649 301.49L347.326 301.893C342.844 302.325 334.083 301.104 328.321 301.136C325.797 298.524 311.309 291.66 307.588 290.288C310.796 293.766 316.024 294.586 317.813 299.512L317.686 300.183C309.14 302.735 299.538 300.165 291.463 297.504L291.261 299.107C292.561 299.908 292.383 299.546 292.994 300.727C291.017 304.588 276.781 302.203 273.168 302.208C271.239 302.26 269.978 302.026 268.606 303.14C269.758 303.561 270.653 303.703 271.293 304.694C271.087 308.295 251.199 311.904 249.854 315.092L250.261 315.454C251.745 315.288 251.614 315.043 252.546 315.68C252.882 316.782 252.891 316.707 252.781 317.846C251.652 319.224 250.221 319.671 250.036 320.557C250.393 320.635 265.626 315.778 268.844 315.445C279.575 314.335 292.907 319.321 302.603 318.844L303.063 319.197C303.148 320.345 303.18 320.269 302.6 321.259C296.934 324.285 294.707 322.739 289.072 327.843C302.417 323.49 317.536 321.142 330.701 327.188C334.053 328.728 343.692 332.24 345.896 334.619C344.984 336.831 339.513 339.082 337.232 340.227C346.21 341.12 356.462 339.254 363.984 345.215C367.164 347.735 383.686 361.014 383.382 364.958L382.915 365.448C380.858 365.459 378.389 364.486 376.227 364.01C376.579 365.089 376.569 365.29 377.271 366.201C383.683 370.144 393.115 373.465 395.075 382.019C395.146 382.328 395.043 382.584 394.957 382.878C392.269 384.078 383.008 378.825 379.671 377.613C386.142 382.24 394.625 389.097 399.429 395.549C399.995 399.327 400.909 410.087 399.253 413.455C397.051 414.681 394.485 409.113 393.755 407.433C393.133 408.422 393.131 408.105 393.03 409.129C394.519 412.193 395.855 420.598 395.74 424.198C395.709 425.17 389.88 433.125 388.026 432.927C387.008 431.067 385.426 424.074 385.387 421.93C385.288 416.435 387.372 408.875 385.001 403.587C384.446 403.841 382.657 411.407 380.629 412.139C380.525 412.246 380.422 412.353 380.318 412.461C378.478 409.055 374.686 404.502 373.634 401.629C372.202 397.715 372.815 391.1 369.993 387.24L369.536 387.462C368.669 389.876 368.987 391.717 368.328 393.846L367.66 394.079C364.832 393.492 362.937 391.113 360.837 389.533C353.836 384.268 351.31 381.375 347.246 373.877C344.746 369.267 338.41 359.909 334.606 356.545C336.285 359.941 340.73 368.506 340.734 371.83L340.233 372.293C336.101 372.455 335.301 370.59 332.002 368.974C322.264 364.206 317.712 356.138 309.567 349.368L308.735 350.494C310.181 352.352 312.246 354.448 312.251 356.748C310.858 358.366 303.199 354.683 301.718 353.64C293.092 347.566 284.132 341.227 275.244 335.575C277.635 338.635 284.713 343.426 285.277 346.025C284.814 347.185 284.721 346.953 283.5 347.827C284.082 348.486 284.636 348.404 285.496 348.455C288.379 348.628 297.097 355.916 299.201 358.195C299.785 358.826 300.32 359.494 300.831 360.185C297.659 362.236 295.155 362.847 291.591 364.094C293.699 364.251 306.117 365.134 307.288 366.044C311.732 369.496 319.443 378.777 320.88 384.504C321.14 385.538 318.088 385.316 317.489 385.285C317.8 386.642 317.813 386.816 318.471 388.016C322.635 390.662 326.774 393.155 326.319 398.721L325.865 399.407C323.731 399.825 323.362 399.765 322.076 401.532C324.74 403.814 326.038 404.719 327.567 407.968C327.477 413.392 326.763 416.537 324.97 421.616C322.659 419.529 319.634 415.523 317.632 412.963C320.171 418.259 321.366 421.816 321.765 427.643C319.394 430.347 318.533 431.23 315.716 433.369C308.198 425.645 312.963 422.828 312.517 412.201C311.389 414.288 309.627 418.472 307.132 418.816C304.905 418.311 302.811 414.926 301.315 412.976C301.366 409.601 301.954 405.008 302.086 401.261C298.276 407.425 296.775 409.039 291.294 402.634C289.983 401.103 288.492 399.475 287.15 397.941C285.674 390.449 285.75 385.177 282.431 377.654C282.531 379.826 282.589 389.683 282 391.155C279.852 391.69 276.59 388.699 275.015 387.43C273.835 386.48 271.298 384.712 270.882 383.286C269.475 378.458 267.817 373.753 266.126 369.015L265.382 369.293C265.096 370.209 265.144 370.685 265.133 371.628C265.393 373.275 266.013 375.816 265.239 377.196C258.762 378.542 251.369 356.369 248.462 351.261C249.045 355.083 250.366 359.994 251.746 363.637C253.189 367.445 256.354 371.854 256.791 375.911C255.887 376.626 255.016 376.476 253.764 376.401C254.543 378.271 254.728 378.084 255.431 379.419C256.736 380.919 258.303 382.609 259.649 384.071C261.655 386.252 264.531 400.051 262.991 402.073C260.336 402.491 256.192 401.064 253.337 400.57C257.107 403.857 264.171 408.693 264.074 413.718C263.952 420.06 261.225 427.783 261.277 434.197C256.409 429.09 256.936 426.488 250.226 421.775C252.288 424.806 263.817 445.34 254.291 444.674C253.004 443.173 252.852 442.107 251.248 440.653L249.21 442.013C250.343 446.201 251.331 449.025 252.01 453.365C249.886 455.27 245.573 462.638 243.268 462.23C241.564 460.529 240.572 454.546 239.913 451.878C239.508 455.594 239.435 463.082 239.245 467.07C232.348 474.585 230.442 474.401 228.31 464.909C230.972 459.66 233.201 455.609 236.198 450.544C233.886 452.349 230.139 456.245 227.308 454.774C225.698 452.6 225.617 448.096 225.323 445.225C228.392 443.182 230.589 439.201 233.241 436.032C230.718 436.984 227.611 439.928 225.345 439.171C223.91 437.489 223.743 426.719 223.65 423.981C226.027 421.485 232.834 410.844 234.554 407.479C232.704 408.217 226.879 415.734 223.823 415.983L223.314 415.471C222.658 413.14 222.338 405.775 222.863 403.214C222.991 402.591 224.057 400.302 224.381 399.614C224.185 397.889 224.701 397.727 223.863 396.563L221.908 396.282C221.781 394.358 221.654 389.927 220.95 388.298C223.36 383.08 226.011 376.348 227.848 370.917C226.18 373.308 223.382 377.86 221.044 379.274C220.621 379.192 220.248 379.275 220.132 378.801C217.113 366.458 215.184 351.564 209.941 339.897C208.498 342.063 207.891 343.861 206.671 345.867C200.015 356.818 195.489 368.72 190.742 380.57C189.595 383.431 186.877 384.442 186.012 387.453C183.856 394.488 181.921 401.576 180.18 408.727C179.805 410.268 178.762 416.021 177.851 416.823C176.222 417.001 176.505 416.704 175.686 417.636C174.077 425.758 172.83 433.637 171.908 441.874C171.7 443.733 171.316 450.518 170.587 451.673C168.929 452.158 168.948 451.849 168.135 452.945C167.589 458.743 167.457 464.574 167.292 470.393C167.137 475.841 167.252 481.292 167.364 486.739C167.229 486.893 167.095 487.046 166.96 487.199L164.872 487.247C163.237 489.316 166.502 516.999 166.273 521.51C166.219 522.582 164.8 522.716 163.94 522.939C163.398 529.109 167.31 548.705 168.142 555.707C168.222 556.387 168.604 557.45 167.84 557.962C167.184 558.401 166.324 558.423 165.531 558.516C164.609 564.165 172.921 589.809 171.114 593.806C170.155 594.126 170.015 593.956 168.931 593.783C168.447 594.843 175.257 622.069 176.005 625.747C193.685 625.554 211.155 626.51 228.807 626.969C237.874 627.204 247.48 632.8 254.843 637.689C257.186 639.26 260.624 639.381 261.357 642.079C261.057 643.346 260.353 644.232 259.636 645.325C261.19 644.294 262.681 643.247 264.335 642.388C265.445 642.889 266.122 644.161 266.976 643.674C269.67 642.136 268.689 639.302 269.237 637.751C269.858 635.988 273.803 632.558 275.066 630.953C279.547 626.28 284.23 621.776 288.966 617.361C289.594 616.774 287.601 615.211 288.329 614.362C295.192 607.873 302.303 601.628 309.391 595.386C309.792 595.032 309.01 593.54 308.863 593.231C309.45 591.005 328.267 577.238 331.033 574.4C331.757 573.658 330.843 573.182 330.664 571.981C334.562 568.506 349.609 557.836 354.463 554.028C354.764 553.792 354.403 552.766 354.244 552.233C354.836 550.58 375.199 537.187 377.924 535.38C379.822 534.12 377.123 533.651 379.085 532.188C388.906 524.87 401.661 518.613 411.318 511.394C408.903 512.162 403.486 514.327 402.321 511.128C402.589 509.981 402.992 509.616 403.708 508.692C402.287 509.418 400.063 510.534 398.608 511.036C395.867 511.981 386.275 512.866 384.031 511.31L383.943 510.249L382.998 508.973C379.64 511.551 377.261 511.704 373.139 512.032C371.28 512.179 369.754 512.428 368.423 511.02C367.924 508.599 369.092 506.561 369.687 504.203C367.808 507.274 366.122 511.112 362.731 511.649C359.452 512.168 357.258 513.024 353.8 512.376C352.782 511.493 353.073 510.993 353.422 509.657L352.778 508.54C351.622 510.208 350.811 513.889 348.007 513.002C346.609 511.032 347.119 508.039 347.416 505.693L347.129 506.127C345.819 508.136 345.58 508.87 345.086 511.172C344.374 514.491 340.72 518.094 337.161 516.033L336.376 516.064C336.064 517.382 336.298 518.223 336.026 519.396C333.73 520.513 332.833 521.613 331.02 523.396C325.114 516.082 327.245 514.277 333.868 509.099C331.767 509.74 328.652 511.259 326.862 509.873C326.439 507.771 328.143 504.692 329.046 502.65C331.495 501.64 334.07 499.998 336.705 499.442C337.668 499.238 337.269 499.507 337.989 498.887L337.57 498.439C335.919 498.11 334.661 498.343 334.679 496.613C336.748 493.303 342.878 490.549 346.476 489.232C349.75 488.034 357.383 491.673 360.096 490.695C358.654 489.907 356.713 489.139 356.225 487.615C356.516 487.018 356.721 486.436 357.512 486.31C366.042 484.944 368.128 484.636 375.597 488.733C376.166 487.806 376.004 488.309 376.002 487.145C379.204 482.78 389.787 490.87 392.46 493.541L392.878 492.516C392.139 491.615 391.152 489.944 390.491 488.908C392.763 489.185 394.261 489.289 396.426 490.048C397.375 490.059 397.911 490.138 398.81 489.806C398.772 489.21 398.775 488.995 398.805 488.376L398.836 487.818L399.418 486.095C398.856 485.608 397.562 485.534 396.675 485.367C393.822 485.027 386.871 482.576 386.917 479.058C387.852 477.127 390.829 476.472 393.056 475.015C390.455 475.512 384.52 476.495 382.298 477.357C379.951 475.595 373.966 472.257 373.022 470.251C373.401 468.661 374.816 468.357 376.266 467.701L376.184 467.288C372.618 465.887 369.274 469.601 366.402 465.626C366.171 462.834 370.055 463.953 371.45 462.1L371.005 461.562C363.513 461.757 362.853 465.284 357.021 457.839C357.27 456.787 358.086 456.24 358.91 455.465L358.638 455.165C356.081 455.242 349.047 455.76 349.306 451.957C349.54 448.528 355.154 448.008 357.672 448.546C361.123 449.284 363.151 450.724 366.007 452.427C364.63 450.992 363.082 449.741 362.745 447.819C363.855 445.513 369.089 446.565 371.473 446.446C373.525 448.464 375.843 450.844 377.968 452.753L376.9 447.596C389.906 446.696 393.382 454.449 398.013 464.728C397.604 460.947 397.142 458.226 396.097 454.544L399.091 454.386C403.238 456.922 406.982 458.682 408.467 463.782C409.466 467.218 410.711 470.585 411.297 474.141L411.644 474.258C412.074 471.645 410.195 466.906 411.482 464.435C412.966 463.732 415.441 466.448 416.536 467.509C418.719 474.634 418.847 477.871 419.125 485.246L419.27 484.765C420.096 481.967 420.287 476.152 421.631 475.136C425.31 476.5 429.229 489.322 429.681 493.44C431.43 491.848 434.62 488.41 436.734 488.362C438.397 489.348 437.815 490.854 437.664 492.653C442.734 484.391 446.513 481.112 456.101 478.877C459.055 478.189 465.424 476.727 468.163 477.294C470.211 479.482 466.179 482.497 464.934 484.385C469.794 482.414 474.941 478.411 480.342 477.482C484.204 476.818 500.629 478.824 502.916 481.14C503.085 483.807 500.058 485.018 497.992 486.287L498.43 486.277C502.837 486.131 510.633 484.375 514.547 485.408C518.804 486.532 528.192 493.005 531.586 495.818C531.918 496.919 531.818 497.145 531.731 498.284L530.364 498.756C530.505 499.534 530.837 499.614 531.522 500.302C534.681 501.133 542.024 503.295 541.794 507.328L541.229 508.024L539.356 508.479C540.171 509.006 540.85 509.347 541.43 510.121C542.216 510.58 545.495 512.345 545.98 512.795C547.915 514.59 552.323 522.287 551.427 524.694C550.277 525.074 549.066 524.767 548.027 524.188L547.369 524.721C550.195 527.018 551.303 528.207 553.375 531.184C553.547 533.603 554.477 537.937 551.605 538.597C545.751 536.886 541.921 526.276 538.499 520.992C538.97 523.917 539.344 526.514 539.66 529.457C530.729 526.274 528.915 521.899 525.012 513.729C524.853 515.473 524.837 517.662 524.774 519.466C522.452 520.846 520.614 518.902 518.492 517.934C511.715 514.84 508.268 509.891 503.746 504.223L503.118 505.46C502.905 505.48 502.693 505.499 502.481 505.518C502.958 506.618 503.871 508.527 503.508 509.649C501.858 510.411 499.912 509.02 498.345 508.501C492.593 506.594 489.182 503.472 484.42 499.888C484.385 500.646 484.34 501.344 484.357 502.105L484.075 502.836C479.158 504.288 468.385 496.935 463.105 495.453C464.374 496.443 465.836 497.371 466.585 498.734L466.611 499.689C465.799 500.325 463.104 500.237 461.826 500.314C457.101 500.601 452.619 501.179 447.989 502.187C448.358 503.322 448.812 503.264 450.119 504.116C453.428 506.074 460.699 505.067 461.93 507.003C461.729 508.486 460.802 508.958 460.109 510.253C464.364 510.437 469.134 509.986 473.499 509.934C478.456 512.817 491.739 515.684 495.261 520.482C495.331 520.576 495.333 521.785 495.334 521.903L493.875 522.245L493.745 523.512C495.897 523.834 499.001 524.194 500.981 524.922C508.13 527.55 513.276 534.005 517.938 539.704C518.688 540.621 518.858 541.312 518.533 542.474C517.437 542.899 516.343 542.612 515.121 542.715C516.38 545.36 516.807 543.806 517.185 545.443C525.017 550.261 526.069 552.245 528.56 561.42C529.334 564.271 530.119 570.33 529.567 573.19L529.035 573.48C527.53 572.631 524.267 568.435 522.796 567.027C521.578 565.859 520.439 565.01 519.095 563.991C523.757 569.802 530.051 579.368 528.651 587.66C528.599 587.971 528.419 588.162 528.235 588.4C525.454 588.223 522.367 581.365 520.283 579.047C521.896 584.129 525.521 593.734 523.388 599.016C522.63 600.893 517.744 608.003 515.362 606.806L515.179 606.312C515.059 604.504 515.314 604.048 514.177 603.025C513.101 608.15 512.714 612.064 508.213 614.677C506.633 615.594 505.151 617.073 503.242 616.742C503.041 616.141 503.247 609.328 503.504 608.861C505.739 604.793 509.119 601.305 511.314 597.108L511.597 596.559C509.095 598.994 507.18 600.052 504.129 601.665C504.376 599.111 504.571 595.522 504.098 592.982C503.933 592.1 503.825 592.627 503.98 591.615C504.028 589.815 504.22 586.974 503.641 585.344C503.317 582.117 501.284 574.356 501.468 572.112C502.037 565.169 503.605 559.802 502.571 552.504C501.995 555.194 501.044 563.995 498.035 564.464C492.702 559.756 490.143 543.381 486.078 536.143C486.632 538.127 489.43 546.749 487.259 547.888C482.568 546.315 478.208 535.545 475.234 531.262L474.865 530.736L473.646 531.167C474.418 532.477 475.9 534.445 474.949 535.791C472.725 536.11 452.664 522.532 449.259 520.406C448.159 520.346 447.558 520.18 446.645 520.768C451.778 523.189 455.697 532.892 456.598 538.216C454.842 537.659 453.602 537.284 451.91 536.5L451.461 537.392C455.28 539.931 455.683 540.636 458.366 544.421C458.46 546.118 458.572 547.856 458.63 549.552C458.942 558.754 457.726 558.274 450.583 554.295C452.83 557.014 455.054 559.768 457.445 562.359C456.739 565.142 453.581 578.434 449.495 576.731C447.629 574.537 447.55 571.822 446.01 570.187C445.848 570.536 446.548 581.471 446.508 583.113C445.43 584.065 444.751 584.881 443.375 585.185C441.197 584.517 440.75 581.963 439.867 579.95C439.23 580.586 437.949 588.753 437.723 590.311C434.625 591.459 428.52 595.163 426.601 591.359C426.635 590.173 426.644 590.245 427.114 589.144C423.553 591.332 422.607 594.916 417.584 594.19C416.057 593.97 414.309 594.202 412.839 593.485C412.925 591.25 414.788 589.768 416.115 587.912C420.4 586.425 422.626 586.076 427.019 584.058C420.643 584.628 418.374 585.204 421.216 578.479C422.594 577.91 426.884 576.327 427.592 575.348C426.292 574.834 424.122 575.331 422.627 575.537C423.366 572.845 424.419 569.394 424.776 566.679C428.872 563.575 433.306 560.525 436.616 556.617C434.149 558.204 430.06 561.274 427.313 561.429C425.356 560.406 426.755 554.93 427.351 553.147C427.685 552.147 430.59 550.718 430.831 549.091L430.425 548.625L428.024 548.554C427.799 541.219 428.105 544.671 430.846 539.194L430.295 538.313C429.121 538.612 429.254 538.78 428.269 538.456C428.053 531.934 426.979 525.799 424.917 519.619L422.927 520.294C422.858 521.887 422.836 525.375 422.331 526.673C421.542 527.027 421.005 526.815 420.138 526.654L419.924 527.064C420.305 528.185 421.099 528.981 421.859 529.914C421.625 531.712 421.045 538.273 420.429 539.235C418.903 539.648 417.415 537.485 416.41 536.39L416.079 537.351C418.45 540.257 420.721 544.435 417.232 547.521C416.193 547.852 415.763 547.684 414.695 547.503L414.269 548.569C416.887 551.723 415.857 554.951 413.091 557.599C412.173 557.913 411.821 557.753 410.849 557.602L410.065 558.295C410.65 559.704 410.978 560.149 410.859 561.609C409.617 563.201 407.969 562.128 406.477 561.301L406.524 562.724C409.389 565.156 407.302 567.201 405.104 569.252C404.097 569.608 403.688 569.512 402.636 569.456L402.101 569.954C403.201 572.254 402.672 574.76 399.781 575.156C397.087 575.525 396.216 574.494 394.258 572.981C394.547 570.862 395.459 567.739 396.037 565.61C391.332 570.64 390.35 570.265 387.678 563.96C389.277 560.63 389.908 560.283 392.687 557.91C390.393 558.951 388.929 560.482 386.46 559.962C384.848 558.453 385.088 553.799 384.955 551.266C386.795 550.167 389.115 548.483 390.913 547.244L390.297 546.135C389.116 546.437 387.817 546.92 386.685 546.638C385.755 545.504 386.088 544.66 386.267 543.227C381.015 549.499 372.372 557.299 366.143 562.487C363.912 562.434 361.992 564.605 360.4 566.458C358.3 568.903 353.746 572.929 352.021 575.437C348.176 581.026 345.921 580.988 341.421 584.156C339.031 585.839 335.156 591.971 332.776 594.305C329.673 597.785 327.195 603.229 322.505 603.686C316.642 610.159 311.797 618.707 306.122 625.444C305.674 625.976 303.614 625.151 302.739 626.257C297.78 632.518 293.445 642.611 288.476 648.493C291.627 648.902 299.008 647.934 302.533 647.591C323.431 645.558 344.735 643.474 365.758 644.658C386.897 645.848 407.605 654.168 429.117 652.433C433.091 652.163 455.997 654.912 457.645 658.298C455.041 664.175 369.437 662.037 358.442 663.099C343.28 664.564 323.654 662.617 307.905 664.05C295.28 665.198 281.803 663.871 269.052 665.353C260.438 666.067 251.026 665.366 242.297 666.745C226.078 669.645 214.804 670.182 198.897 665.624C197.611 665.256 191.35 664.271 190.015 664.22C187.955 662.831 184.911 661.321 182.672 660.096C166.401 651.193 150.973 641.123 136.454 629.54C134.42 628.211 132.138 626.073 130.251 624.507C42.5587 551.713 -4.42568 438.341 5.09494 324.886C5.74064 317.191 11.9786 273.723 15.3605 268.386C16.6561 265.714 17.8087 262.457 18.082 259.494L18.6251 259.45C23.8765 259.051 32.2916 262.146 34.8989 261.101C33.8189 259.528 31.5867 259.447 29.6363 257.065L29.3569 256.73C29.1479 256.464 28.9389 256.197 28.7298 255.931C35.1879 254.158 37.8313 253.395 44.4666 253.599C48.9788 253.739 57.2324 258.212 59.271 257.131C58.9947 255.056 55.3409 253.789 56.5164 251.947C58.6401 251.419 79.165 250.992 81.0173 251.713C87.4879 254.232 97.2542 259.181 103.402 262.691L103.941 261.566C101.809 259.626 98.8603 257.3 97.7775 254.719L97.848 254.021C100.092 252.972 115.76 256.511 117.813 257.484C123.836 260.339 136.939 270.787 141.204 275.695L141.681 274.716C139.379 272.233 135.008 268.378 134.332 265.353L134.543 264.524C135.911 263.791 137.281 264.247 138.764 264.722C149.141 268.041 155.598 277.64 162.171 285.897L163.334 284.574C162.342 282.841 160.089 279.113 160.474 277.305C163.997 276.274 185.096 292.53 188.197 295.601C186.372 292.536 179.23 282.324 179.466 279.569L180.058 279.263C181.663 279.474 184.541 280.979 186.338 281.691L186.805 281.261L186.111 280.038C179.099 276.913 174.251 275.309 170.248 268.295C168.902 265.936 164.708 261.653 165.548 258.883C166.468 258.531 173.23 257.864 174.682 257.675C170.159 255.906 164.571 254.816 159.666 253.265C157.571 250.949 148.396 238.896 147.153 236.21L147.436 235.687L148.847 235.326C149.769 234.998 150.54 234.923 151.506 234.758C150.636 234.31 150.51 234.098 149.932 233.307C147.482 232.262 138.184 229.687 139.2 225.858C141.178 224.241 143.33 224.666 145.942 224.733C147.795 225.055 150.803 225.699 152.539 225.358C151.488 224.728 150.37 224.543 149.172 224.241C145.288 222.938 137.699 221.025 133.535 220.194C130.94 216.748 126.874 213.296 124.815 210.032C128.265 210.09 132.9 210.287 136.225 209.821Z"/><path fill="#00A8EC" transform="matrix(1.42595 0 0 1.42595 -6.10352e-05 -6.10352e-05)" d="M15.3605 268.386C18.7649 268.509 30.1258 266.305 31.9598 267.075C29.6143 267.903 25.6227 268.843 24.4021 270.818C24.4772 271.943 24.2392 271.494 24.9345 272.278L25.4153 272.356C29.2084 272.994 35.7431 275.114 38.8657 275.938C41.1805 276.548 57.1411 272.04 59.5975 271.186L60.2385 272.381C58.0575 273.443 53.1552 275.593 52.1719 277.763C52.6677 283.114 74.4127 276.696 77.9848 276.034L78.9361 277.149C76.8529 277.909 71.0144 279.815 69.3974 280.859C69.09 282.385 69.0115 281.693 69.4236 283.03C70.8582 283.391 72.2603 283.348 73.7808 283.566C78.4194 284.233 92.2034 288.567 95.9021 287.868C100.013 287.091 108.151 284.239 113.035 283.032C111.079 284.639 106.108 287.993 105.891 290.075C107.348 292.662 116.443 294.161 119.621 295.374C129.069 298.983 139.425 294.907 148.939 295.803C146.013 297.319 139.121 298.307 137.745 299.903C137.663 303.386 152.186 306.343 154.716 307.843C162.762 312.614 170.028 309.991 178.583 311.025C176.919 311.766 175.549 312.179 174.345 313.506C173.916 314.762 173.907 314.171 174.189 315.329C176.37 316.512 178.904 316.832 180.848 317.805C185.781 320.274 193.946 323.774 198.346 326.789C196.66 326.718 191.63 326.532 189.809 326.98C177.721 329.957 166.507 335.561 156.545 342.991C156.017 343.384 155.687 344.031 155.481 344.593C155.851 346.067 155.487 345.469 156.566 346.48C159.54 347.363 162.096 345.611 163.797 346.41L163.979 347.049C162.631 348.326 142.313 350.949 141.383 357.326C142.401 360.9 145.208 359.239 147.769 358.838L147.082 360.38C138.924 362.608 131.964 365.765 128.249 373.635C127.629 374.948 126.797 376.072 128.353 377.14C131.967 377.147 138.577 374.72 142.408 373.775C137.565 377.053 128.149 380.95 122.408 384.072L122.454 384.082C121.367 386.813 117.783 394.022 118.428 396.061C120.121 397.979 124.494 396.808 126.77 396.448C123.446 398.917 119.381 400.812 115.827 403.241C115.522 405.824 114.494 409.867 115.879 411.668C117.947 412.261 121.967 410.381 124.245 409.708C120.951 412.987 117.568 415.738 114.224 418.909C114.277 420.268 114.309 425.827 114.815 426.74C117.139 427.201 121.71 425.405 123.631 424.212C125.2 423.238 126.37 416.891 127.739 414.023L128.357 412.732C128.199 415.189 127.588 418.737 128.968 420.612C131.219 421.38 136.618 416.861 139.411 415.706C139.636 409.854 139.27 404.415 139.41 398.824C140.109 400.669 140.744 402.6 141.298 404.488C142.901 409.955 144.012 410.787 148.812 408.229C148.48 403.043 148.619 397.839 148.131 392.708L148.439 392.58C150.535 395.538 151.846 401.795 153.548 402.957C155.885 401.259 162.933 392.648 164.924 390.038C163.849 385.875 162.393 381.729 160.649 377.799C162.572 379.651 166.202 383.736 168.555 384.187L169.366 383.979L170.238 384.675C169.96 386.501 168.653 388.515 167.952 390.211C165.845 395.313 158.76 407.693 158.789 412.636C159.362 413.462 159.54 413.679 160.231 414.411C160.106 415.704 159.773 415.325 159.485 416.045C155.651 425.628 152.627 435.861 149.665 445.799C149.091 447.726 150.719 450.053 150.647 451.704C150.546 454.03 149.494 456.761 149.063 459.075C147.952 464.497 143.349 480.961 143.85 486.004C144.569 486.452 145.056 486.397 145.915 486.471C146.912 489.841 139.046 520.409 142.227 522.77L143.813 522.89C144.637 524.784 141.02 551.788 141.399 556.11C141.624 558.67 141.511 558.863 144.262 559.829C144.699 565.057 142.417 592.299 144.082 594.605C145.141 595.231 145.284 595.217 146.44 595.532C147.106 597.503 146.725 603.622 146.633 606.028C146.374 612.818 146.527 619.524 146.572 626.315C146.58 627.501 146.464 628.41 145.31 628.876C144.253 628.538 144.002 628.291 143.118 627.66L142.561 627.731L142.415 628.181L143.156 629.371C142.242 630.131 137.865 629.628 136.454 629.54C134.42 628.211 132.138 626.073 130.251 624.507C42.5587 551.713 -4.42568 438.341 5.09494 324.886C5.74064 317.191 11.9786 273.723 15.3605 268.386Z"/><path fill="#32BDF9" transform="matrix(1.42595 0 0 1.42595 -6.10352e-05 -6.10352e-05)" d="M221.908 396.282C224.695 395.899 224.264 395.741 226.357 393.092C228.661 390.177 229.87 387.102 232.632 384.432C230.423 388.949 227.732 393.897 224.775 397.985C224.602 398.224 224.427 399.28 224.381 399.614C224.185 397.889 224.701 397.727 223.863 396.563L221.908 396.282Z"/><path fill="#32BDF9" transform="matrix(1.42595 0 0 1.42595 -6.10352e-05 -6.10352e-05)" d="M396.426 490.048C397.375 490.059 397.911 490.138 398.81 489.806C398.772 489.21 398.775 488.995 398.805 488.376L398.836 487.818C399.831 489.959 406.978 494.482 409.505 495.173C410.241 495.374 410.489 495.628 411.054 496.109L410.959 496.569C408.642 496.687 406.84 494.682 404.872 493.719C402.29 492.455 399.163 490.912 396.426 490.048Z"/><path fill="#05ACF9" transform="matrix(1.42595 0 0 1.42595 -6.10352e-05 -6.10352e-05)" d="M503.641 585.344C506.44 584.875 508.05 583.575 509.984 581.517C508.523 585.111 506.164 588.394 503.98 591.615C504.028 589.815 504.22 586.974 503.641 585.344Z"/><path fill="#05ACF9" transform="matrix(1.42595 0 0 1.42595 -6.10352e-05 -6.10352e-05)" d="M242.652 371.757C245.036 372.192 252.971 374.06 253.764 376.401C254.543 378.271 254.728 378.084 255.431 379.419C250.059 375.507 247.905 374.899 242.652 371.757Z"/><path fill="#05ACF9" transform="matrix(1.42595 0 0 1.42595 -6.10352e-05 -6.10352e-05)" d="M306.958 381.612C310.152 382.068 314.895 383.324 317.489 385.285C317.8 386.642 317.813 386.816 318.471 388.016C315.914 386.615 308.91 382.877 306.958 381.612Z"/><path fill="#32BDF9" transform="matrix(1.42595 0 0 1.42595 -6.10352e-05 -6.10352e-05)" d="M493.745 523.512C490.749 522.941 488.109 523.358 484.862 522.48L484.831 522.182C488.052 521.228 492.038 521.473 495.334 521.903L493.875 522.245L493.745 523.512Z"/><path fill="#05ACF9" transform="matrix(1.42595 0 0 1.42595 -6.10352e-05 -6.10352e-05)" d="M377.271 366.201C375.101 365.132 369.448 362.937 368.082 361.665C369.913 361.145 374.721 362.928 376.227 364.01C376.579 365.089 376.569 365.29 377.271 366.201Z"/><path fill="#05ACF9" transform="matrix(1.42595 0 0 1.42595 -6.10352e-05 -6.10352e-05)" d="M149.932 233.307C152.976 234.088 154.434 234.61 157.181 236.2L157.357 236.639C154.255 237.049 151.592 235.623 148.847 235.326C149.769 234.998 150.54 234.923 151.506 234.758C150.636 234.31 150.51 234.098 149.932 233.307Z"/><path fill="#05ACF9" transform="matrix(1.42595 0 0 1.42595 -6.10352e-05 -6.10352e-05)" d="M318.862 396.775C321.375 397.964 323.125 399.038 325.865 399.407C323.731 399.825 323.362 399.765 322.076 401.532L318.883 398.854L318.862 396.775Z"/><path fill="#05ACF9" transform="matrix(1.42595 0 0 1.42595 -6.10352e-05 -6.10352e-05)" d="M446.645 520.768C445.313 520.25 444.561 520.282 443.297 519.579C442.942 518.406 443.47 517.841 444.019 516.466C445.652 517.81 447.427 519.417 449.259 520.406C448.159 520.346 447.558 520.18 446.645 520.768Z"/><path fill="#05ACF9" transform="matrix(1.42595 0 0 1.42595 -6.10352e-05 -6.10352e-05)" d="M531.522 500.302C528.953 499.641 524.814 498.73 522.508 497.641L522.758 497.407C525.347 497.37 528.909 498.041 531.731 498.284L530.364 498.756C530.505 499.534 530.837 499.614 531.522 500.302Z"/><path fill="#05ACF9" transform="matrix(1.42595 0 0 1.42595 -6.10352e-05 -6.10352e-05)" d="M246.019 433.836C247.824 435.567 249.761 438.542 251.248 440.653L249.21 442.013C248.374 439.55 246.98 436.583 246.019 433.836Z"/><path fill="#05ACF9" transform="matrix(1.42595 0 0 1.42595 -6.10352e-05 -6.10352e-05)" d="M531.127 506.532C534.972 507.179 537.254 507.925 541.229 508.024L539.356 508.479C540.171 509.006 540.85 509.347 541.43 510.121C538.668 510.277 533.648 507.823 531.127 506.532Z"/><path fill="#05ACF9" transform="matrix(1.42595 0 0 1.42595 -6.10352e-05 -6.10352e-05)" d="M379.763 296.581C377.292 295.931 374.251 295.342 372.047 294.25L372.243 293.998L372.367 294.305L372.718 293.974L372.679 294.42L373.076 293.983L373.024 294.534L373.433 294.003C376.318 294.161 377.814 294.567 380.651 295.246L379.339 295.497C379.454 295.799 379.627 296.307 379.763 296.581Z"/><path fill="#05ACF9" transform="matrix(1.42595 0 0 1.42595 -6.10352e-05 -6.10352e-05)" d="M268.606 303.14C266.906 303.245 264.952 302.96 263.233 302.783L263.102 301.805L262.256 302.072C265.017 301.284 270.332 301.688 273.168 302.208C271.239 302.26 269.978 302.026 268.606 303.14Z"/><path fill="#32BDF9" transform="matrix(1.42595 0 0 1.42595 -6.10352e-05 -6.10352e-05)" d="M147.769 358.838C148.877 358.421 155.642 356.624 156.311 356.829C154.309 357.975 149.4 359.791 147.082 360.38L147.769 358.838Z"/><path fill="#05ACF9" transform="matrix(1.42595 0 0 1.42595 -6.10352e-05 -6.10352e-05)" d="M291.261 299.107C290.096 298.734 285.371 297.472 285.041 296.387C287.52 296.261 289.079 296.861 291.463 297.504L291.261 299.107Z"/><path fill="#32BDF9" transform="matrix(1.42595 0 0 1.42595 -6.10352e-05 -6.10352e-05)" d="M163.334 284.574C164.638 287.56 166.591 289.648 167.962 292.993C165.753 290.561 164.16 288.492 162.171 285.897L163.334 284.574Z"/><path fill="#32BDF9" transform="matrix(1.42595 0 0 1.42595 -6.10352e-05 -6.10352e-05)" d="M265.133 371.628C264.486 368.759 263.797 366.294 263.844 363.338C264.747 365.116 265.64 367.087 266.126 369.015L265.382 369.293C265.096 370.209 265.144 370.685 265.133 371.628Z"/><path fill="#32BDF9" transform="matrix(1.42595 0 0 1.42595 -6.10352e-05 -6.10352e-05)" d="M396.675 485.367C399.777 485.148 402.019 484.848 405.044 485.735C403.923 486.696 400.833 486.42 399.418 486.095C398.856 485.608 397.562 485.534 396.675 485.367Z"/><path fill="#32BDF9" transform="matrix(1.42595 0 0 1.42595 -6.10352e-05 -6.10352e-05)" d="M498.161 498.788C500.415 500.544 501.907 502.074 503.746 504.223L503.118 505.46C502.905 505.48 502.693 505.499 502.481 505.518C501.293 503.897 499.553 500.8 498.161 498.788Z"/><path fill="#05ACF9" transform="matrix(1.42595 0 0 1.42595 -6.10352e-05 -6.10352e-05)" d="M186.111 280.038C188.59 281.003 191.976 282.107 193.984 283.694C192.157 283.33 187.926 282.541 186.338 281.691L186.805 281.261L186.111 280.038Z"/><path fill="#05ACF9" transform="matrix(1.42595 0 0 1.42595 -6.10352e-05 -6.10352e-05)" d="M447.989 502.187C448.358 503.322 448.812 503.264 450.119 504.116C447.343 504.102 444.804 504.025 442.031 503.888C444.477 502.975 445.438 502.635 447.989 502.187Z"/><path fill="#32BDF9" transform="matrix(1.42595 0 0 1.42595 -6.10352e-05 -6.10352e-05)" d="M304.056 345.664L305.066 345.245C306.506 346.474 308.384 347.948 309.567 349.368L308.735 350.494C307.386 348.956 305.518 347.149 304.056 345.664Z"/><path fill="#05ACF9" transform="matrix(1.42595 0 0 1.42595 -6.10352e-05 -6.10352e-05)" d="M509.809 542.659C511.923 542.527 513.025 542.584 515.121 542.715C516.38 545.36 516.807 543.806 517.185 545.443C516.819 545.412 510.792 543.017 509.809 542.659Z"/><path fill="#32BDF9" transform="matrix(1.42595 0 0 1.42595 -6.10352e-05 -6.10352e-05)" d="M430.295 538.313C430.697 536.927 434.678 532.542 435.842 531.365C434.214 534.524 432.966 536.312 430.846 539.194L430.295 538.313Z"/><path fill="#32BDF9" transform="matrix(1.42595 0 0 1.42595 -6.10352e-05 -6.10352e-05)" d="M382.998 508.973C384.759 507.341 387.134 505.593 389.348 504.657C388.023 505.937 384.842 508.888 383.943 510.249L382.998 508.973Z"/><path fill="#32BDF9" transform="matrix(1.42595 0 0 1.42595 -6.10352e-05 -6.10352e-05)" d="M473.646 531.167C472.73 530.003 471.585 527.578 470.462 525.973L470.242 525.662C472.04 526.874 473.632 528.977 474.865 530.736L473.646 531.167Z"/><path fill="#32BDF9" transform="matrix(1.42595 0 0 1.42595 -6.10352e-05 -6.10352e-05)" d="M336.026 519.396C335.619 517.356 335.364 514.477 336.799 512.807L337.241 513.121C337.393 514.211 337.266 514.949 337.161 516.033L336.376 516.064C336.064 517.382 336.298 518.223 336.026 519.396Z"/><path fill="#32BDF9" transform="matrix(1.42595 0 0 1.42595 -6.10352e-05 -6.10352e-05)" d="M169.366 383.979C170.289 382.318 171.371 380.252 172.942 379.161L173.34 379.411C172.426 381.982 170.421 382.773 170.238 384.675L169.366 383.979Z"/><path fill="#32BDF9" transform="matrix(1.42595 0 0 1.42595 -6.10352e-05 -6.10352e-05)" d="M318.883 398.854C316.829 397.39 315.36 396.421 313.585 394.621C315.403 395.325 317.074 395.999 318.862 396.775L318.883 398.854Z"/><path fill="#32BDF9" transform="matrix(1.42595 0 0 1.42595 -6.10352e-05 -6.10352e-05)" d="M478.563 495.862C480.37 496.939 482.931 498.442 484.42 499.888C484.385 500.646 484.34 501.344 484.357 502.105C483.652 500.344 480.4 497.994 478.563 495.862Z"/><path fill="#32BDF9" transform="matrix(1.42595 0 0 1.42595 -6.10352e-05 -6.10352e-05)" d="M404.814 552.72C406.469 553.774 409.397 556.245 410.849 557.602L410.065 558.295C407.392 556.063 406.89 555.427 404.814 552.72Z"/><path fill="#32BDF9" transform="matrix(1.42595 0 0 1.42595 -6.10352e-05 -6.10352e-05)" d="M103.941 261.566C105.857 262.953 108.064 264.431 109.692 266.1C107.024 265.109 105.737 264.426 103.402 262.691L103.941 261.566Z"/><path fill="#05ACF9" transform="matrix(1.42595 0 0 1.42595 -6.10352e-05 -6.10352e-05)" d="M422.63 514.006C423.542 515.857 424.19 517.692 424.917 519.619L422.927 520.294L422.63 514.006Z"/><path fill="#32BDF9" transform="matrix(1.42595 0 0 1.42595 -6.10352e-05 -6.10352e-05)" d="M390.004 402.701C391.633 404.488 392.366 405.445 393.755 407.433C393.133 408.422 393.131 408.105 393.03 409.129C391.927 407.097 390.958 404.824 390.004 402.701Z"/><path fill="#32BDF9" transform="matrix(1.42595 0 0 1.42595 -6.10352e-05 -6.10352e-05)" d="M59.5975 271.186C62.0685 270.494 63.4116 270.127 66.0621 270.089C63.7024 271.256 62.7626 271.601 60.2385 272.381L59.5975 271.186Z"/><path fill="#32BDF9" transform="matrix(1.42595 0 0 1.42595 -6.10352e-05 -6.10352e-05)" d="M77.9848 276.034C79.3362 275.553 80.8296 274.825 82.187 275.051L82.2311 275.403C81.1185 276.403 80.3574 276.581 78.9361 277.149L77.9848 276.034Z"/><path fill="#8BD3F1" transform="matrix(1.42595 0 0 1.42595 -6.10352e-05 -6.10352e-05)" d="M141.681 274.716C142.917 276.229 144.285 277.694 145.077 279.451L144.702 279.484C143.265 278.274 142.389 277.127 141.204 275.695L141.681 274.716Z"/><path fill="#32BDF9" transform="matrix(1.42595 0 0 1.42595 -6.10352e-05 -6.10352e-05)" d="M390.297 546.135C391.947 545.12 394.195 544.637 396.096 544.222C394.125 545.522 393.019 546.189 390.913 547.244L390.297 546.135Z"/><path fill="#32BDF9" transform="matrix(1.42595 0 0 1.42595 -6.10352e-05 -6.10352e-05)" d="M515.16 597.265C515.411 600.101 515.596 603.494 515.179 606.312C515.059 604.504 515.314 604.048 514.177 603.025C514.359 600.712 514.647 599.521 515.16 597.265Z"/><path fill="#8BD3F1" transform="matrix(1.42595 0 0 1.42595 -6.10352e-05 -6.10352e-05)" d="M304.056 345.664C303.023 345.044 301.577 343.816 300.911 342.783L301.123 342.435C302.6 342.837 303.858 344.188 305.066 345.245L304.056 345.664Z"/><path fill="#32BDF9" transform="matrix(1.42595 0 0 1.42595 -6.10352e-05 -6.10352e-05)" d="M352.778 508.54C353.403 507.41 353.855 506.29 354.927 505.613L355.215 506.022C354.858 507.722 354.394 508.206 353.422 509.657L352.778 508.54Z"/><path fill="#32BDF9" transform="matrix(1.42595 0 0 1.42595 -6.10352e-05 -6.10352e-05)" d="M445.897 534.022C448.376 534.64 449.921 534.91 451.91 536.5L451.461 537.392C449.22 536.191 447.946 535.503 445.897 534.022Z"/><path fill="#32BDF9" transform="matrix(1.42595 0 0 1.42595 -6.10352e-05 -6.10352e-05)" d="M376.002 487.145C377.623 488.907 379.654 490.507 381 492.234C379.188 491.082 377.369 489.947 375.597 488.733C376.166 487.806 376.004 488.309 376.002 487.145Z"/><path fill="#32BDF9" transform="matrix(1.42595 0 0 1.42595 -6.10352e-05 -6.10352e-05)" d="M406.524 562.724C405.337 561.722 403.774 560.595 403.233 559.21L403.53 558.957L403.236 559.306L404.066 559.196C404.983 559.88 405.648 560.526 406.477 561.301L406.524 562.724Z"/><path fill="#8BD3F1" transform="matrix(1.42595 0 0 1.42595 -6.10352e-05 -6.10352e-05)" d="M392.878 492.516C393.836 493.734 395.902 496.193 396.451 497.455C394.872 496.275 393.676 495.097 392.46 493.541L392.878 492.516Z"/><path fill="#32BDF9" transform="matrix(1.42595 0 0 1.42595 -6.10352e-05 -6.10352e-05)" d="M414.269 548.569C413.101 548.154 411.636 547.493 411.353 546.219C412.471 545.999 413.624 546.863 414.695 547.503L414.269 548.569Z"/><path fill="#8BD3F1" transform="matrix(1.42595 0 0 1.42595 -6.10352e-05 -6.10352e-05)" d="M547.369 524.721C545.36 523.53 543.807 522.202 542.266 520.466C544.524 521.781 545.952 522.622 548.027 524.188L547.369 524.721Z"/><path fill="#8BD3F1" transform="matrix(1.42595 0 0 1.42595 -6.10352e-05 -6.10352e-05)" d="M416.079 537.351C415.174 536.447 413.845 535.375 413.658 534.208C414.897 534.604 415.488 535.436 416.41 536.39L416.079 537.351Z"/><path fill="#32BDF9" transform="matrix(1.42595 0 0 1.42595 -6.10352e-05 -6.10352e-05)" d="M399.412 565.297C400.759 566.823 401.472 567.805 402.636 569.456L402.101 569.954C400.722 569.1 399.971 566.787 399.412 565.297Z"/><path fill="#05ACF9" transform="matrix(1.42595 0 0 1.42595 -6.10352e-05 -6.10352e-05)" d="M269.585 345.778C272.357 345.428 279.432 344.764 281.296 347.129C280.037 348.098 276.588 347.527 274.734 347.46C269.82 347.477 267.994 347.75 263.121 348.725C265.59 347.364 266.824 346.375 269.585 345.778Z"/><path fill="#32BDF9" transform="matrix(1.42595 0 0 1.42595 -6.10352e-05 -6.10352e-05)" d="M263.121 348.725C265.59 347.364 266.824 346.375 269.585 345.778L269.597 346.707C270.786 347.605 272.764 346.835 274.734 347.46C269.82 347.477 267.994 347.75 263.121 348.725Z"/><path fill="#05ACF9" transform="matrix(1.42595 0 0 1.42595 -6.10352e-05 -6.10352e-05)" d="M173.398 358.197C175.505 359.11 176.798 363.28 178.086 365.732L176.714 368.321C176.38 368.714 176.062 369.036 175.706 369.407C175.42 364.029 174.837 363.212 173.398 358.197Z"/><path fill="#8BD3F1" transform="matrix(1.42595 0 0 1.42595 -6.10352e-05 -6.10352e-05)" d="M436.006 542.721C436.375 543.044 436.205 542.822 436.386 543.469C435.179 545.181 433.203 547.476 431.696 548.916C431.184 548.137 431.277 548.464 431.224 547.556C431.976 546.492 434.82 543.916 436.006 542.721Z"/><path fill="#32BDF9" transform="matrix(1.42595 0 0 1.42595 -6.10352e-05 -6.10352e-05)" d="M188.179 344.265C190.307 345.765 190.635 346.995 189.387 349.168C188.959 349.527 189.229 349.38 188.529 349.5C188.014 348.033 188.174 345.891 188.179 344.265Z"/><path fill="#FDFDFE" transform="matrix(1.42595 0 0 1.42595 -6.10352e-05 -6.10352e-05)" d="M410.277 51.375C422.125 50.5107 434.283 51.1359 443.94 58.9586C454.019 67.0798 456.53 80.7859 454.664 93.0476C451.957 110.625 448.506 128.089 445.55 145.632C444.184 153.273 443.142 160.811 441.036 168.292C435.401 188.312 417.273 199.71 397.28 201.696C385.731 203.099 372.452 200.52 363.189 193.259C349.243 182.327 351.962 166.499 354.8 151.18C357.383 134.466 361.301 117.421 363.674 100.739C367.531 73.6373 381.063 54.2665 410.277 51.375Z"/><path fill="#00A8EC" transform="matrix(1.42595 0 0 1.42595 -6.10352e-05 -6.10352e-05)" d="M413.718 67.3108C420.303 67.06 427.79 68.3095 432.949 72.7016C442.181 80.5611 437.621 95.5962 435.81 105.889L431.319 131.326L427.882 150.788C427.076 155.351 426.382 159.788 425.118 164.261C421.132 178.363 408.887 185.076 394.829 185.651C379.005 185.817 366.998 179.5 370.045 161.245C373.781 139.277 377.792 117.287 381.616 95.3365C384.815 76.9804 395.378 68.3679 413.718 67.3108Z"/><path fill="#FDFDFE" transform="matrix(1.42595 0 0 1.42595 -6.10352e-05 -6.10352e-05)" d="M319.104 54.1756C322.097 54.2597 322.203 54.9759 323.99 57.2104C323.472 61.5082 322.493 66.5582 321.753 70.8839C308.87 70.6618 299.907 70.4926 288.648 77.7776C271.225 89.0507 271.592 104.258 267.813 121.997C276.533 114.522 289.051 111.142 300.5 111.604C321.752 112.461 337.86 130.136 336.374 151.501C335.233 167.905 328.34 179.09 316.091 189.846C303.818 199.411 291.449 203.681 275.793 201.697C257.835 199.336 244.577 183.78 244.373 165.79C244.319 158.135 246.176 150.609 247.437 143.076C248.677 135.661 250.178 128.192 251.384 120.764C251.699 118.817 252.287 116.291 252.483 114.414C255.721 83.444 274.513 57.3164 307.194 54.5392C311.175 54.2009 315.096 54.2204 319.104 54.1756Z"/><path fill="#00A8EC" transform="matrix(1.42595 0 0 1.42595 -6.10352e-05 -6.10352e-05)" d="M291.766 128.549C331.53 125.336 326.527 177.816 289.789 185.186C250.594 190.945 252.608 134.554 291.766 128.549Z"/><path fill="#FDFDFE" transform="matrix(1.42595 0 0 1.42595 -6.10352e-05 -6.10352e-05)" d="M549.107 286.98C571.487 285.218 591.079 301.886 592.925 324.26C594.771 346.633 578.177 366.287 555.81 368.218C533.324 370.159 513.542 353.456 511.686 330.963C509.83 308.47 526.607 288.751 549.107 286.98Z"/><path fill="#FDFDFE" transform="matrix(1.42595 0 0 1.42595 -6.10352e-05 -6.10352e-05)" d="M551.777 382.153C554.548 382.338 557.42 384.509 557.541 387.385C557.828 394.202 557.686 401.184 557.687 408.011L557.694 451.617C556.331 454.042 556.102 454.86 553.54 456.015L553.051 456.003C548.896 455.931 548.722 455.3 546.602 451.968C547.161 448.761 547.003 433.298 546.953 429.027C546.786 414.833 547.216 400.015 546.82 385.884C548.541 383.596 549.108 383.163 551.777 382.153Z"/><path fill="#FDFDFE" transform="matrix(1.42595 0 0 1.42595 -6.10352e-05 -6.10352e-05)" d="M550.77 198.084C554.926 197.755 555.561 199.059 557.675 202.255C558.301 212.776 557.462 225.727 557.779 236.684C558.008 244.602 557.888 255.886 557.486 263.918C557.394 265.748 554.76 267.465 553.226 268.354C549.706 268.665 546.833 265.83 546.776 262.322C546.702 257.711 546.691 253.14 546.69 248.528L546.691 222.737C546.692 216.368 546.538 208.843 546.871 202.432C546.966 200.596 549.243 198.987 550.77 198.084Z"/><path fill="#FDFDFE" transform="matrix(1.42595 0 0 1.42595 -6.10352e-05 -6.10352e-05)" d="M636.844 234.425C639.427 235.538 644.385 239.562 641.706 242.495C628.283 257.182 613.588 271.066 599.457 285.129C598.097 286.481 596.59 287.219 594.801 287.843C592.842 287.168 590.921 286.083 589.839 284.235C589.212 283.163 589.038 281.885 589.411 280.693C590.056 278.633 628.562 240.459 632.783 236.83C634.059 235.733 635.304 235.074 636.844 234.425Z"/><path fill="#FDFDFE" transform="matrix(1.42595 0 0 1.42595 -6.10352e-05 -6.10352e-05)" d="M594.063 362.749C594.573 362.706 594.989 362.781 595.474 362.932C596.753 363.331 597.727 364.021 598.726 364.902C602.778 368.478 640.867 406.306 641.701 408.358C642.156 409.478 641.989 411.066 641.502 412.142C640.682 413.954 638.944 415.131 637.143 415.807C635.117 415.533 633.535 414.652 632.105 413.191C620.929 401.683 609.241 390.76 597.838 379.491C592.435 374.151 583.809 368.117 594.063 362.749Z"/><path fill="#FDFDFE" transform="matrix(1.42595 0 0 1.42595 -6.10352e-05 -6.10352e-05)" d="M467.33 234.594C467.807 234.591 467.762 234.572 468.283 234.663C469.392 234.857 470.335 235.613 471.17 236.318C475.574 240.033 513.6 278.168 514.53 280.098C515.058 281.193 515.08 282.758 514.645 283.881C513.908 285.786 512.224 286.773 510.44 287.527C509.764 287.521 509.06 287.552 508.396 287.401C507.332 287.161 506.399 286.42 505.584 285.734C500.061 281.08 464.036 244.881 462.695 241.942C462.284 241.041 462.396 239.795 462.743 238.886C463.536 236.807 465.414 235.526 467.33 234.594Z"/><path fill="#FDFDFE" transform="matrix(1.42595 0 0 1.42595 -6.10352e-05 -6.10352e-05)" d="M508.068 363.153C510.671 362.995 512.587 363.621 514.176 365.881C516.138 368.673 514.187 371.531 512.138 373.624C505.841 380.056 499.229 386.204 492.832 392.555L479.289 406.103C476.403 408.994 472.272 413.427 469.034 415.613C468.207 415.689 467.288 415.726 466.473 415.525C465.074 415.18 463.455 413.93 462.727 412.696C462.019 411.497 461.958 410.126 462.365 408.813C462.961 406.888 503.868 365.695 508.068 363.153Z"/><path fill="#FDFDFE" transform="matrix(1.42595 0 0 1.42595 -6.10352e-05 -6.10352e-05)" d="M441.267 318.175C458.902 317.946 477.288 318.13 494.942 318.171C499.787 321.22 501.64 326.016 495.392 328.822C485.736 329.481 473.603 328.722 463.647 329.001C456.671 328.644 448.688 329.616 441.853 328.765C434.827 327.891 436.23 321.337 441.267 318.175Z"/><path fill="#FDFDFE" transform="matrix(1.42595 0 0 1.42595 -6.10352e-05 -6.10352e-05)" d="M609.631 318.183L663.266 318.188C667.946 321.284 668.929 326.318 663.191 328.832C653.197 329.269 641.528 328.869 631.414 328.964C625.833 329.016 613.528 329.26 608.397 328.651C606.381 326.89 605.921 326.012 604.781 323.697C606.132 320.723 606.83 319.803 609.631 318.183Z"/></svg>