<?xml version="1.0" encoding="UTF-8" standalone="no"?>
<!-- Created with Inkscape (http://www.inkscape.org/) -->

<svg
   width="93mm"
   height="65mm"
   viewBox="0 0 93 65"
   version="1.1"
   id="svg1"
   inkscape:version="1.4.3 (0d15f75, 2025-12-25)"
   sodipodi:docname="60.svg"
   xmlns:inkscape="http://www.inkscape.org/namespaces/inkscape"
   xmlns:sodipodi="http://sodipodi.sourceforge.net/DTD/sodipodi-0.dtd"
   xmlns="http://www.w3.org/2000/svg"
   xmlns:svg="http://www.w3.org/2000/svg">
  <sodipodi:namedview
     id="namedview1"
     pagecolor="#ffffff"
     bordercolor="#111111"
     borderopacity="1"
     inkscape:showpageshadow="0"
     inkscape:pageopacity="0"
     inkscape:pagecheckerboard="1"
     inkscape:deskcolor="#d1d1d1"
     inkscape:document-units="mm"
     inkscape:zoom="1.0396254"
     inkscape:cx="396.77752"
     inkscape:cy="561.25984"
     inkscape:window-width="2560"
     inkscape:window-height="1369"
     inkscape:window-x="-8"
     inkscape:window-y="-8"
     inkscape:window-maximized="1"
     inkscape:current-layer="svg1" />
  <defs
     id="defs1">
    <clipPath
       clipPathUnits="userSpaceOnUse"
       id="clipPath73">
      <path
         fill="#00a8ec"
         d="m 413.718,67.3108 c 6.585,-0.2508 14.072,0.9987 19.231,5.390803 9.232,7.859497 4.672,22.894597 2.861,33.187397 l -4.491,25.437 -3.437,19.462 c -0.806,4.563 -1.5,9 -2.764,13.473 -3.986,14.102 -16.231,20.815 -30.289,21.39 -15.824,0.166 -27.831,-6.151 -24.784,-24.406 3.736,-21.968 7.747,-43.958 11.571,-65.908501 C 384.815,76.9804 395.378,68.3679 413.718,67.3108 Z"
         id="path73"
         style="display:none;stroke-width:1" />
      <path
         id="lpe_path-effect73"
         style="stroke-width:1"
         class="powerclip"
         d="m 347.50946,46.080366 h 112.7234 V 207.063 H 347.50946 Z M 413.718,67.3108 c -18.34,1.0571 -28.903,9.6696 -32.102,28.025699 -3.824,21.950501 -7.835,43.940501 -11.571,65.908501 -3.047,18.255 8.96,24.572 24.784,24.406 14.058,-0.575 26.303,-7.288 30.289,-21.39 1.264,-4.473 1.958,-8.91 2.764,-13.473 l 3.437,-19.462 4.491,-25.437 C 437.621,95.5962 442.181,80.5611 432.949,72.701603 427.79,68.3095 420.303,67.06 413.718,67.3108 Z" />
    </clipPath>
    <inkscape:path-effect
       effect="powerclip"
       message=""
       id="path-effect73"
       is_visible="true"
       lpeversion="1"
       inverse="true"
       flatten="false"
       hide_clip="false" />
    <clipPath
       clipPathUnits="userSpaceOnUse"
       id="clipPath72">
      <path
         fill="#00a8ec"
         d="m 291.766,128.549 c 39.764,-3.213 34.761,49.267 -1.977,56.637 -39.195,5.759 -37.181,-50.632 1.977,-56.637 z"
         id="path72"
         style="display:none;stroke-width:1" />
      <path
         id="lpe_path-effect72"
         style="stroke-width:1"
         class="powerclip"
         d="M 239.37185,49.1756 H 341.46909 V 207.17295 H 239.37185 Z M 291.766,128.549 c -39.158,6.005 -41.172,62.396 -1.977,56.637 36.738,-7.37 41.741,-59.85 1.977,-56.637 z" />
    </clipPath>
    <inkscape:path-effect
       effect="powerclip"
       message=""
       id="path-effect72"
       is_visible="true"
       lpeversion="1"
       inverse="true"
       flatten="false"
       hide_clip="false" />
  </defs>
  <path
     fill="#fdfdfe"
     transform="matrix(0.3772826,0,0,0.3772826,-84.962736,-15.921808)"
     d="m 410.277,51.375 c 11.848,-0.8643 24.006,-0.2391 33.663,7.5836 10.079,8.1212 12.59,21.8273 10.724,34.089 -2.707,17.5774 -6.158,35.0414 -9.114,52.5844 -1.366,7.641 -2.408,15.179 -4.514,22.66 -5.635,20.02 -23.763,31.418 -43.756,33.404 -11.549,1.403 -24.828,-1.176 -34.091,-8.437 -13.946,-10.932 -11.227,-26.76 -8.389,-42.079 2.583,-16.714 6.501,-33.759 8.874,-50.441 3.857,-27.1017 17.389,-46.4725 46.603,-49.364 z"
     id="path60"
     clip-path="url(#clipPath73)"
     inkscape:path-effect="#path-effect73"
     inkscape:original-d="m 410.277,51.375 c 11.848,-0.8643 24.006,-0.2391 33.663,7.5836 10.079,8.1212 12.59,21.8273 10.724,34.089 -2.707,17.5774 -6.158,35.0414 -9.114,52.5844 -1.366,7.641 -2.408,15.179 -4.514,22.66 -5.635,20.02 -23.763,31.418 -43.756,33.404 -11.549,1.403 -24.828,-1.176 -34.091,-8.437 -13.946,-10.932 -11.227,-26.76 -8.389,-42.079 2.583,-16.714 6.501,-33.759 8.874,-50.441 3.857,-27.1017 17.389,-46.4725 46.603,-49.364 z" />
  <path
     fill="#fdfdfe"
     d="m 319.104,54.1756 c 2.993,0.0841 3.099,0.8003 4.886,3.0348 -0.518,4.2978 -1.497,9.3478 -2.237,13.6735 -12.883,-0.2221 -21.846,-0.3913 -33.105,6.8937 -17.423,11.2731 -17.056,26.4804 -20.835,44.2194 8.72,-7.475 21.238,-10.855 32.687,-10.393 21.252,0.857 37.36,18.532 35.874,39.897 -1.141,16.404 -8.034,27.589 -20.283,38.345 -12.273,9.565 -24.642,13.835 -40.298,11.851 -17.958,-2.361 -31.216,-17.917 -31.42,-35.907 -0.054,-7.655 1.803,-15.181 3.064,-22.714 1.24,-7.415 2.741,-14.884 3.947,-22.312 0.315,-1.947 0.903,-4.473 1.099,-6.35 3.238,-30.97 22.03,-57.0976 54.711,-59.8748 3.981,-0.3383 7.902,-0.3188 11.91,-0.3636 z"
     id="path62"
     transform="matrix(0.3772826,0,0,0.3772826,-84.962736,-15.921808)"
     clip-path="url(#clipPath72)"
     inkscape:path-effect="#path-effect72"
     inkscape:original-d="m 319.104,54.1756 c 2.993,0.0841 3.099,0.8003 4.886,3.0348 -0.518,4.2978 -1.497,9.3478 -2.237,13.6735 -12.883,-0.2221 -21.846,-0.3913 -33.105,6.8937 -17.423,11.2731 -17.056,26.4804 -20.835,44.2194 8.72,-7.475 21.238,-10.855 32.687,-10.393 21.252,0.857 37.36,18.532 35.874,39.897 -1.141,16.404 -8.034,27.589 -20.283,38.345 -12.273,9.565 -24.642,13.835 -40.298,11.851 -17.958,-2.361 -31.216,-17.917 -31.42,-35.907 -0.054,-7.655 1.803,-15.181 3.064,-22.714 1.24,-7.415 2.741,-14.884 3.947,-22.312 0.315,-1.947 0.903,-4.473 1.099,-6.35 3.238,-30.97 22.03,-57.0976 54.711,-59.8748 3.981,-0.3383 7.902,-0.3188 11.91,-0.3636 z" />
</svg>
