<?xml version="1.0" encoding="UTF-8" standalone="no"?>
<!-- Created with Inkscape (http://www.inkscape.org/) -->

<svg
   width="93mm"
   height="104mm"
   viewBox="0 0 93 104"
   version="1.1"
   id="svg1"
   inkscape:version="1.4.3 (0d15f75, 2025-12-25)"
   sodipodi:docname="SOL.svg"
   xmlns:inkscape="http://www.inkscape.org/namespaces/inkscape"
   xmlns:sodipodi="http://sodipodi.sourceforge.net/DTD/sodipodi-0.dtd"
   xmlns="http://www.w3.org/2000/svg"
   xmlns:svg="http://www.w3.org/2000/svg">
  <sodipodi:namedview
     id="namedview1"
     pagecolor="#ffffff"
     bordercolor="#111111"
     borderopacity="1"
     inkscape:showpageshadow="0"
     inkscape:pageopacity="0"
     inkscape:pagecheckerboard="1"
     inkscape:deskcolor="#d1d1d1"
     inkscape:document-units="mm"
     inkscape:zoom="1.0396254"
     inkscape:cx="396.77752"
     inkscape:cy="561.25984"
     inkscape:window-width="2560"
     inkscape:window-height="1369"
     inkscape:window-x="-8"
     inkscape:window-y="-8"
     inkscape:window-maximized="1"
     inkscape:current-layer="layer1" />
  <defs
     id="defs1" />
  <g
     inkscape:label="Capa 1"
     inkscape:groupmode="layer"
     id="layer1"
     transform="translate(-12.724936,-38.938303)">
    <path
       fill="#fdfdfe"
       d="m 58.423817,75.097155 c 8.443584,-0.664772 15.835305,5.623774 16.531769,14.065095 0.696463,8.440943 -5.564164,15.85606 -14.002844,16.58459 -8.483577,0.7323 -15.946981,-5.56945 -16.647218,-14.055665 -0.700236,-8.486217 5.629434,-15.925853 14.118293,-16.59402 z"
       id="path64"
       style="stroke-width:0.377283" />
    <path
       fill="#fdfdfe"
       d="m 59.431161,111.00427 c 1.04545,0.0698 2.129006,0.88888 2.174657,1.97394 0.10828,2.57194 0.05471,5.20613 0.05508,7.78183 l 0.0026,16.45179 c -0.514236,0.91491 -0.600634,1.22353 -1.567232,1.65929 l -0.184491,-0.005 c -1.567609,-0.0272 -1.633256,-0.26523 -2.433095,-1.52233 0.210901,-1.20995 0.15129,-7.04387 0.132426,-8.65524 -0.06301,-5.35515 0.09922,-10.94573 -0.05018,-16.27711 0.649304,-0.86322 0.863223,-1.02658 1.87019,-1.40764 z"
       id="path65"
       style="stroke-width:0.377283" />
    <path
       fill="#fdfdfe"
       d="m 59.051238,41.558241 c 1.567986,-0.124126 1.807561,0.36785 2.605136,1.573645 0.236179,3.96939 -0.08036,8.855577 0.03924,12.989463 0.0864,2.987324 0.04112,7.24458 -0.110543,10.274914 -0.03471,0.690427 -1.028473,1.338222 -1.607224,1.673626 -1.328035,0.117335 -2.411968,-0.952261 -2.433473,-2.275769 -0.02792,-1.73965 -0.03207,-3.464209 -0.03245,-5.204236 l 3.77e-4,-9.730496 c 3.77e-4,-2.402912 -0.05772,-5.241964 0.06791,-7.660723 0.03584,-0.692691 0.894914,-1.299738 1.471025,-1.640424 z"
       id="path66"
       style="stroke-width:0.377283" />
    <path
       fill="#fdfdfe"
       d="m 91.52546,55.269068 c 0.974521,0.419915 2.845088,1.9381 1.834348,3.04467 -5.064264,5.54115 -10.608432,10.779341 -15.939812,16.085066 -0.513105,0.510087 -1.08167,0.788521 -1.756628,1.023945 -0.739097,-0.254665 -1.463857,-0.664017 -1.872076,-1.361235 -0.236557,-0.404447 -0.302204,-0.886614 -0.161477,-1.336335 0.243347,-0.777202 14.770991,-15.179588 16.3635,-16.548747 0.481413,-0.413879 0.95113,-0.662508 1.532145,-0.907364 z"
       id="path67"
       style="stroke-width:0.377283" />
    <path
       fill="#fdfdfe"
       d="m 75.384933,103.68348 c 0.192414,-0.0162 0.349364,0.0121 0.532346,0.069 0.482544,0.15054 0.850018,0.41086 1.226923,0.74325 1.528749,1.34916 15.899066,15.62101 16.21372,16.39519 0.171663,0.42256 0.108657,1.02168 -0.07508,1.42764 -0.309371,0.68364 -0.965088,1.1277 -1.644574,1.38274 -0.764375,-0.10338 -1.361236,-0.43576 -1.90075,-0.98697 -4.21651,-4.34177 -8.626189,-8.46283 -12.928343,-12.71442 -2.038458,-2.01469 -5.292898,-4.29122 -1.424242,-6.31647 z"
       id="path68"
       style="stroke-width:0.377283" />
    <path
       fill="#fdfdfe"
       d="m 27.570777,55.332828 c 0.179964,-0.0011 0.162987,-0.0083 0.359551,0.02603 0.418406,0.07319 0.774184,0.358418 1.089215,0.624402 1.661552,1.401605 16.0081,15.789277 16.358973,16.517433 0.199205,0.413124 0.207506,1.003571 0.04339,1.42726 -0.278058,0.718723 -0.913401,1.091101 -1.586474,1.375572 -0.255043,-0.0023 -0.52065,0.0094 -0.771165,-0.04754 -0.401429,-0.09055 -0.753434,-0.370115 -1.060919,-0.628931 -2.083732,-1.755873 -15.675337,-15.413126 -16.181273,-16.521959 -0.155064,-0.339932 -0.112808,-0.810026 0.01811,-1.152976 0.299185,-0.78437 1.007722,-1.267669 1.730595,-1.619297 z"
       id="path69"
       style="stroke-width:0.377283" />
    <path
       fill="#fdfdfe"
       d="m 42.940516,103.8359 c 0.982067,-0.0596 1.70494,0.17657 2.304442,1.02923 0.740229,1.05337 0.0042,2.13165 -0.768902,2.9213 -2.375748,2.42668 -4.870341,4.74621 -7.283818,7.14234 l -5.109538,5.11142 c -1.088838,1.09072 -2.647392,2.76322 -3.869033,3.58796 -0.312013,0.0287 -0.658735,0.0426 -0.966221,-0.0332 -0.527818,-0.13017 -1.138639,-0.60177 -1.4133,-1.06734 -0.267116,-0.45236 -0.290131,-0.96961 -0.136577,-1.46498 0.224861,-0.72627 15.65836,-16.26768 17.242947,-17.22673 z"
       id="path70"
       style="stroke-width:0.377283" />
    <path
       fill="#fdfdfe"
       d="m 17.737661,86.866485 c 6.653379,-0.0864 13.590097,-0.01698 20.250644,-0.0015 1.827934,1.150335 2.527038,2.959782 0.169777,4.018437 -3.643041,0.248629 -8.220611,-0.03773 -11.976836,0.06753 -2.631924,-0.13469 -5.643771,0.232028 -8.222497,-0.08904 -2.650788,-0.329745 -2.12146,-2.802455 -0.221088,-3.995423 z"
       id="path71"
       style="stroke-width:0.377283" />
    <path
       fill="#fdfdfe"
       d="m 81.258469,86.869504 20.235551,0.0019 c 1.76568,1.168067 2.13655,3.067307 -0.0283,4.015796 -3.770558,0.164872 -8.173068,0.01396 -11.988904,0.0498 -2.105615,0.01962 -6.748077,0.111676 -8.683914,-0.118089 C 80.0323,90.154503 79.85875,89.823249 79.428648,88.94984 79.938357,87.827801 80.2017,87.480701 81.258469,86.869504 Z"
       id="path72"
       style="stroke-width:0.377283" />
  </g>
</svg>
