<?xml version="1.0" encoding="UTF-8" standalone="no"?>
<svg
   height="512px"
   style="shape-rendering:geometricPrecision; text-rendering:geometricPrecision; image-rendering:optimizeQuality; fill-rule:evenodd; clip-rule:evenodd"
   version="1.1"
   viewBox="0 0 512 512"
   width="512px"
   xml:space="preserve"
   id="svg1"
   sodipodi:docname="tiktok1.svg"
   inkscape:version="1.4.2 (f4327f4, 2025-05-13)"
   xmlns:inkscape="http://www.inkscape.org/namespaces/inkscape"
   xmlns:sodipodi="http://sodipodi.sourceforge.net/DTD/sodipodi-0.dtd"
   xmlns="http://www.w3.org/2000/svg"
   xmlns:svg="http://www.w3.org/2000/svg"><sodipodi:namedview
     id="namedview1"
     pagecolor="#ffffff"
     bordercolor="#000000"
     borderopacity="0.25"
     inkscape:showpageshadow="2"
     inkscape:pageopacity="0.0"
     inkscape:pagecheckerboard="0"
     inkscape:deskcolor="#d1d1d1"
     showgrid="false"
     inkscape:zoom="2.2792969"
     inkscape:cx="256"
     inkscape:cy="256"
     inkscape:window-width="2560"
     inkscape:window-height="1369"
     inkscape:window-x="1072"
     inkscape:window-y="142"
     inkscape:window-maximized="1"
     inkscape:current-layer="svg1" /><defs
     id="defs1"><style
       type="text/css"
       id="style1">
   <![CDATA[
    .fil0 {fill:black}
   ]]>
  </style></defs><path
     d="m 262.85937,105.75977 v 197.8496 c 10e-6,9.12 -0.92882,17.2511 -2.79882,24.3711 -16.53,36.4 -63.91016,30.80976 -75.41016,5.00976 -12.65,-28.35 3.26961,-67.92968 50.84961,-60.92968 0,-54.94 -0.0293,3.1e-4 -0.0293,-54.92969 -115.18,-18.2 -153.299841,151.92828 -38.58984,186.23828 66.53,14.54 117.41898,-27.53922 116.45898,-96.69922 l 0.0801,-99.64062 c 25.21,22.48 65.7107,25.42109 70.9707,25.12109 0,-18.23 -0.0215,-32.07969 -0.0215,-51.17969 -69.51,-4.13 -70.85914,-70.38093 -70.86914,-74.96093 z"
     style="fill:#ffffff"
     id="path3" /></svg>
